<?xml version="1.0" encoding="utf-8"?>
<!-- Generator: Adobe Illustrator 15.1.0, SVG Export Plug-In . SVG Version: 6.00 Build 0)  -->
<!DOCTYPE svg PUBLIC "-//W3C//DTD SVG 1.1//EN" "http://www.w3.org/Graphics/SVG/1.1/DTD/svg11.dtd">
<svg version="1.1" id="Layer_1" xmlns="http://www.w3.org/2000/svg" xmlns:xlink="http://www.w3.org/1999/xlink" x="0px" y="0px"
	 width="288px" height="288px" viewBox="0 0 288 288" enable-background="new 0 0 288 288" xml:space="preserve">
<g>
	<g>
		<circle cx="143.517" cy="145.314" r="130.5"/>
		<g>
			<circle fill="#ED1C24" cx="143.517" cy="142.814" r="125.997"/>
			<circle fill="#FFCB05" cx="143.517" cy="142.814" r="120.926"/>
			<circle fill="#ED1C24" cx="143.517" cy="142.814" r="69.3"/>
			<circle fill="#A8E0F9" cx="143.517" cy="142.814" r="64.009"/>
		</g>
	</g>
	<g>
		<g>
			<g>
				<path d="M60.041,214.391c-0.042-1.101-0.093-2.904-0.006-5.438c-2.282-0.607-5.085-2.052-7.473-5.351
					c-2.982-4.115-2.874-7.674,0.011-9.757c2.499-1.81,6.32-1.275,8.784-0.587c0.234-1.467,0.793-2.835,2.084-3.772
					c2.693-1.945,8.144-0.661,14.424,6.389l-4.231,3.814c-3.257-4.381-5.019-5.193-6.037-4.466c-0.852,0.626-0.92,1.969-1.047,5.036
					c-0.082,1.565-0.084,3.114-0.09,4.669c1.124-0.062,2.784-0.259,4.974-0.591l0.415,5.896c-2.21,0.01-3.958-0.149-5.318-0.291
					c0.025,1.363,0.08,3.288,0.111,4.607L60.041,214.391z M60.411,204.035c-0.108-2.354,0.135-4.325,0.338-6.361
					c-1.039-0.043-2.107,0.106-3.21,0.946c-0.825,0.594-1.029,2.169-0.114,3.432C58.124,203.01,59.175,203.713,60.411,204.035z"/>
				<path d="M85.866,235.924c-1.028-0.604-2.086-1.225-3.363-2.184c-8.895-6.669-8.787-13.66-6.06-17.293
					c3.374-4.506,11.558-6.892,22.422-1.877l-2.71,6.103c-6.497-3.258-10.675-2.497-12.583,0.054
					c-1.566,2.094-0.569,5.504,3.043,8.217c1.082,0.81,2.013,1.38,2.702,1.809L85.866,235.924z"/>
				<path d="M93.336,229.604c2.166-5.123,8.454-8.942,16.854-5.387c6.809,2.871,9.516,8.138,7.049,13.975
					c-1.689,3.999-7.192,9.188-16.748,5.147C92.871,240.119,91.541,233.847,93.336,229.604z M109.883,235.306
					c1.425-3.368,0.703-5.849-1.888-6.938c-3.06-1.296-5.865,0.714-7.211,3.908c-1.475,3.501-0.346,5.96,1.84,6.887
					C105.528,240.383,108.233,239.215,109.883,235.306z"/>
				<path d="M116.401,248.305c0.656-1.09,8.242-15.463,10.397-18.928l0.471,0.055c1.605,3.019,5.371,10.285,6.201,11.866
					c1.357-1.602,6.262-7.684,8.166-9.98l0.471,0.05c1.7,4.462,6.461,18.106,7.11,19.767l-6.601,1.931
					c-0.75-2.396-2.902-9.772-3.062-10.571c-0.426,0.503-4.82,5.553-7.417,8.323l-0.474-0.053c-2.028-3.543-4.731-8.521-5.119-9.414
					c-0.586,1.439-3.501,8.377-4.212,9.667L116.401,248.305z"/>
				<path d="M154.985,251.472c-0.216-1.236-1.376-8.06-1.734-10.095l-0.561-3.105c-0.122-0.665-1.24-6.525-1.317-6.964
					c6.474-1.163,10.033-1.659,12.677-1.513c3.167,0.152,6.135,1.343,6.711,4.548c0.708,3.94-2.485,8.609-9.536,10.979l0.128,0.736
					c0.105,0.565,0.635,3.537,0.782,4.13L154.985,251.472z M160.47,241.117c1.623-0.364,3.66-2.067,3.193-4.673
					c-0.291-1.604-1.358-2.583-4.437-2.271L160.47,241.117z"/>
				<path d="M173.405,246.248c0.274-1.698,2.617-17.384,3.771-22.666l0.593-0.254c5.499,3.347,17.684,11.406,19.523,12.432
					l-4.41,5.59c-1.385-0.919-3.844-2.717-4.194-2.935l-8.164,3.935c-0.053,0.316-0.186,2.876-0.281,4.395L173.405,246.248z
					 M185.14,235.348c-1.428-1.2-3.2-2.512-4.193-3.378c-0.11,1.554-0.302,3.807-0.396,5.578L185.14,235.348z"/>
				<path d="M201.968,235.597c-1.101-1.724-9.63-13.824-11.752-17.027l0.323-0.468c5.151-0.464,16.675-1.099,17.604-0.961
					c-0.968-1.228-5.394-6.76-6.139-7.771l5.314-3.992c1.237,1.909,3.638,5.459,6.065,8.948c2.385,3.423,4.711,6.775,5.827,8.31
					l-0.344,0.449c-3.605,0.448-15.954,0.908-17.567,0.888c0.92,1.175,5.499,7.013,6.05,7.663L201.968,235.597z"/>
				<path d="M227.832,212.206c-0.512-0.444-2.86-2.407-3.157-2.639l-0.94-0.72c-2.967-2.263-6.062-2.627-8.61-1.713
					c-1.358,0.503-2.305,1.354-3.119,1.962l-3.786-5.882c1.713-1.289,3.817-2.42,5.943-2.802c1.544-0.228,3.475-0.116,5.701,0.646
					l0.147-0.186c-1.121-1.719-1.671-3.675-1.84-5.638c-0.138-1.989,0.137-4.251,1.089-6.558l6.432,2.485
					c-0.608,1.243-1.28,3.067-1.312,4.897c-0.005,2.296,1.143,4.928,3.756,6.929l1.427,1.093c0.327,0.244,2.412,1.763,2.908,2.06
					L227.832,212.206z"/>
			</g>
			<g>
				<path d="M40.888,150.613l1.362,2.251l-6.399,4.407l-2.195-3.773L40.888,150.613z M40.883,155.456l1.71,1.856l-5.227,5.484
					l-2.673-2.93L40.883,155.456z"/>
				<path d="M57.346,146.318c-1.459-0.059-9.625-0.303-12.031-0.358l-3.731-0.08c-0.777-0.017-7.797-0.063-8.305-0.08
					c0.139-6.474,0.401-10.604,1.139-13.401c0.923-3.375,2.986-6.314,6.817-6.23c4.408,0.101,9.096,4.305,10.272,12.534l0.916,0.021
					c0.676,0.017,4.37,0.096,5.084,0.043L57.346,146.318z M46.729,138.597c-0.264-1.973-1.901-4.649-4.715-4.707
					c-1.896-0.047-3.477,0.899-3.825,4.527L46.729,138.597z"/>
				<path d="M48.43,124.725c-5.336-1.571-9.839-7.388-7.253-16.146c2.094-7.086,7.025-10.371,13.11-8.578
					c4.162,1.237,9.932,6.124,6.988,16.071C58.932,124.011,52.854,126.042,48.43,124.725z M52.243,107.639
					c-3.517-1.037-5.895-0.043-6.692,2.66c-0.941,3.184,1.377,5.749,4.696,6.727c3.644,1.079,5.965-0.323,6.637-2.602
					C57.779,111.394,56.307,108.838,52.243,107.639z"/>
				<path d="M65.651,102.181c-1.076-0.656-6.957-4.293-8.729-5.363l-2.696-1.634c-0.582-0.354-5.725-3.39-6.101-3.617
					c3.405-5.622,5.384-8.631,7.24-10.519c2.208-2.269,5.063-3.712,7.848-2.03c3.424,2.073,4.823,7.552,1.941,14.411l0.637,0.391
					c0.494,0.291,3.078,1.861,3.618,2.147L65.651,102.181z M61.497,91.212c0.804-1.448,0.868-4.109-1.399-5.473
					c-1.393-0.841-2.834-0.692-4.638,1.83L61.497,91.212z"/>
				<path d="M87.199,74.342c-0.648,0.878-1.341,1.761-2.344,2.829c-6.938,7.341-12.993,6.934-15.901,4.189
					c-3.48-3.279-4.583-10.9,1.349-19.943l5.074,2.919c-3.567,5.31-3.488,8.933-1.544,10.767c1.631,1.544,4.395,0.93,7.213-2.052
					c0.862-0.91,1.483-1.671,1.949-2.264L87.199,74.342z"/>
				<path d="M81.12,66.342c-3.024-4.66-2.658-12.016,4.998-16.981c6.206-4.02,12.084-3.305,15.534,2.02
					c2.362,3.645,3.564,11.112-5.145,16.754C89.561,72.635,83.629,70.212,81.12,66.342z M95.131,55.849
					c-1.994-3.078-4.447-3.871-6.812-2.337c-2.787,1.808-2.691,5.261-0.809,8.17c2.065,3.184,4.741,3.628,6.732,2.337
					C96.89,62.307,97.437,59.408,95.131,55.849z"/>
				<path d="M112.872,49.773c0.333,1.036,2.646,7.954,2.845,8.35l-6.936,2.253c-0.083-0.687-2.216-7.161-2.403-7.743l-1.441-4.463
					c-0.275-0.835-2.263-6.749-2.507-7.277c4.13-1.343,8.218-2.697,11.143-3.252c4.499-0.851,7.391,0.027,8.205,2.544
					c0.743,2.294-0.016,4.469-1.898,6.679c1.174,0.65,6.708,3.204,7.764,3.829l-4.392,6.024c-1.042-0.799-8.869-6.786-10.062-7.721
					c1.272-1.232,2.543-3.142,1.885-5.178c-0.417-1.285-1.602-2.079-4.516-1.174L112.872,49.773z"/>
				<path d="M127.599,54.231c0.093-2.048,0.045-16.844,0.146-20.689l0.532-0.206c4.484,2.586,14.286,8.683,14.966,9.323
					c-0.085-1.549-0.532-8.63-0.566-9.884l6.646-0.211c-0.083,2.273-0.159,6.558-0.171,10.799c-0.014,4.172-0.03,8.25,0,10.154
					l-0.533,0.163c-3.215-1.703-13.589-8.403-14.897-9.355c0.079,1.485,0.476,8.906,0.555,9.751L127.599,54.231z"/>
				<path d="M175.515,59.26c-1.185-0.18-2.39-0.375-3.929-0.788c-10.73-2.925-13.206-9.466-12.011-13.851
					c1.481-5.426,8.208-10.656,20.155-10.005l-0.271,6.674c-7.239-0.64-10.841,1.613-11.682,4.686
					c-0.683,2.518,1.507,5.335,5.854,6.51c1.312,0.364,2.384,0.544,3.184,0.698L175.515,59.26z"/>
				<path d="M177.09,59.397c0.657-1.068,4.053-6.896,4.422-7.546l1.564-2.702c0.25-0.444,3.883-6.881,4.179-7.531l6.61,3.808
					c-0.327,0.434-3.188,5.203-3.447,5.643l-0.508,0.883l6.705,3.242l0.539-0.948c0.243-0.407,2.624-4.674,2.883-5.266l6.584,3.791
					c-0.386,0.603-4.5,7.546-4.844,8.134l-1.438,2.497c-0.181,0.323-3.734,6.621-3.946,7.118l-6.578-3.793
					c0.52-0.835,2.939-4.833,3.216-5.309l0.993-1.729l-6.704-3.242l-0.424,0.74c-0.661,1.143-2.973,5.362-3.278,5.976L177.09,59.397
					z"/>
				<path d="M198.064,68.816c1.682-0.359,17.15-3.845,22.486-4.681l0.45,0.461c-1.128,6.341-4.237,20.609-4.528,22.687l-6.807-2.088
					c0.365-1.625,1.148-4.564,1.228-4.977l-6.626-6.177c-0.312,0.068-2.745,0.868-4.189,1.328L198.064,68.816z M212.47,75.818
					c0.598-1.767,1.184-3.898,1.629-5.136c-1.49,0.46-3.66,1.1-5.347,1.65L212.47,75.818z"/>
				<path d="M225.537,91.281c-0.941,0.54-7.239,4.21-7.589,4.479l-3.606-6.33c0.657-0.222,6.558-3.623,7.093-3.93l4.066-2.311
					c0.762-0.439,6.146-3.58,6.609-3.929c2.153,3.776,4.316,7.499,5.447,10.249c1.746,4.231,1.47,7.235-0.825,8.547
					c-2.094,1.194-4.367,0.888-6.922-0.508c-0.397,1.279-1.776,7.224-2.174,8.382l-6.79-3.083
					c0.582-1.185,4.854-10.059,5.521-11.412c1.464,0.993,3.59,1.851,5.446,0.798c1.18-0.671,1.713-1.993,0.232-4.659L225.537,91.281
					z"/>
				<path d="M245.939,108.934c-0.654,0.179-6.35,1.846-9.811,2.941l-4.812,1.528c0.228,0.714,1.328,4.178,2.21,6.489l-5.351,1.735
					c-0.28-0.867-3.236-11.168-4.04-13.687c1.475-0.401,7.355-2.268,8-2.475l3.649-1.157c0.449-0.148,7.313-2.4,7.854-2.607
					L245.939,108.934z"/>
				<path d="M238.118,128.718c-2.85,0.443-7.933,1.337-8.599,1.469l-1.147-7.445c1.243-0.154,7.928-1.153,8.656-1.265l3.09-0.48
					c0.507-0.075,7.801-1.275,8.503-1.381l1.152,7.447c-0.543,0.052-5.15,0.661-8.572,1.179L238.118,128.718z"/>
				<path d="M229.53,147.761c0.016-1.252,0.502-12.364,0.534-14.163c1.518,0.095,7.693,0.197,8.372,0.207l3.828,0.063
					c0.475,0.005,7.425,0.053,8.271,0.069c-0.031,1.935,0.206,12.274,0.285,13.564l-4.948,0.054c0.02-1.146-0.069-5.998-0.065-6.547
					l-3.489-0.054c-0.012,0.609,0.068,4.173,0.18,5.533l-4.812-0.018c0.011-0.809,0.181-4.913,0.189-5.589l-3.113-0.049
					c-0.017,0.779-0.159,5.459-0.047,6.914L229.53,147.761z"/>
				<path d="M250.044,162.977l-5.209-5.5l1.713-1.851l6.178,4.422L250.044,162.977z M251.572,157.456l-6.383-4.422l1.364-2.248
					l7.219,2.909L251.572,157.456z"/>
			</g>
		</g>
		<g>
			<path d="M221.626,179.256c-0.126,0.301-0.459,0.453-0.984,0.453c-0.503,0-0.963-0.125-1.373-0.361
				c-0.453-0.268-0.645-0.59-0.585-0.961c0.033-0.148,0.143-0.328,0.328-0.52c0.197-0.197,0.284-0.367,0.273-0.498l-0.273-6.672
				c-0.005-0.236-0.235-0.471-0.678-0.701c-0.438-0.229-0.662-0.508-0.673-0.836c0.301-0.635,0.646-1.137,1.033-1.504
				c0.367-0.355,0.7-0.547,1.007-0.574c0.427-0.043,0.81,0.076,1.148,0.344c0.339,0.273,0.497,0.607,0.481,1.008
				c0,0.109-0.055,0.246-0.164,0.404c-0.115,0.152-0.17,0.289-0.17,0.404l0.24,7.941c0.012,0.219,0.099,0.469,0.269,0.742
				c0.175,0.279,0.263,0.516,0.263,0.711C221.769,178.824,221.719,179.031,221.626,179.256z"/>
			<path d="M230.628,172.496c0.011,2.066-0.29,3.785-0.908,5.146c-0.612,1.367-1.389,2.051-2.335,2.051
				c-1.05,0-1.914-0.613-2.587-1.85c-0.53-0.383-0.799-0.748-0.799-1.109c0-0.098,0.017-0.18,0.055-0.273
				c0.121-0.389,0.547-0.586,1.258-0.586c0.547,0,0.941,0.133,1.171,0.4c0.082,0.109,0.12,0.234,0.12,0.383
				c0,0.055-0.006,0.119-0.011,0.219c-0.011,0.092-0.022,0.164-0.022,0.219c0,0.146,0.055,0.273,0.153,0.355
				c0.071,0.322,0.229,0.475,0.481,0.447c0.219-0.004,0.459-0.365,0.722-1.094c0.263-0.721,0.41-1.459,0.448-2.209
				c-0.306,0.465-0.727,0.695-1.258,0.695c-0.836,0-1.52-0.361-2.066-1.084c-0.498-0.66-0.771-1.477-0.82-2.438
				c-0.044-0.777,0.186-1.713,0.678-2.795c0.558-1.264,1.203-1.893,1.936-1.893c1.148,0,2.067,0.48,2.751,1.449
				C230.272,169.5,230.616,170.816,230.628,172.496z M228.112,171.408c0.043-0.268,0.065-0.568,0.065-0.896
				c0-0.887-0.143-1.363-0.433-1.445c-0.268-0.076-0.541,0.115-0.825,0.592c-0.252,0.404-0.427,0.869-0.53,1.389
				c-0.071,0.334-0.104,0.672-0.104,1.012c0,0.908,0.219,1.416,0.646,1.516c0.225,0.049,0.459-0.182,0.711-0.689
				C227.85,172.447,228.003,171.955,228.112,171.408z"/>
			<path d="M238.12,176.188c0,0.641-0.449,1.4-1.34,2.264c-0.892,0.869-1.641,1.303-2.242,1.303c-0.433,0-0.946-0.279-1.548-0.832
				c-0.656-0.602-0.974-1.17-0.974-1.707c0-0.492,0.208-1.109,0.646-1.869c0.055-0.094,0.465-0.717,1.214-1.859
				c-1.214-0.656-1.783-1.652-1.712-2.975c0.027-0.625,0.328-1.281,0.886-1.986c0.602-0.738,1.258-1.191,1.969-1.355
				c0.258-0.061,0.515-0.088,0.75-0.088c0.716,0,1.258,0.258,1.641,0.771c0.35,0.443,0.524,1.039,0.524,1.75
				c0,0.568-0.153,1.137-0.465,1.717c-0.137,0.273-0.497,0.814-1.066,1.619c0.602,0.607,1.018,1.1,1.247,1.482
				C237.956,174.951,238.12,175.537,238.12,176.188z M235.473,176.789c0.225-0.285,0.345-0.629,0.345-1.033
				c0-0.383-0.12-0.613-0.345-0.711c-0.295,0.41-0.591,0.803-0.886,1.203c-0.361,0.529-0.541,0.924-0.541,1.158
				c0,0.191,0.087,0.291,0.268,0.291C234.608,177.697,235.003,177.391,235.473,176.789z M235.725,169.203
				c-0.159,0-0.351,0.088-0.558,0.264c-0.219,0.17-0.372,0.365-0.481,0.557c-0.175,0.361-0.263,0.674-0.263,0.908
				c0,0.328,0.158,0.607,0.481,0.811c0.716-1.33,1.083-2.096,1.083-2.303C235.987,169.281,235.899,169.203,235.725,169.203z"/>
			<path d="M246.257,172.496c0.012,2.066-0.289,3.785-0.907,5.146c-0.612,1.367-1.395,2.051-2.335,2.051
				c-1.056,0-1.914-0.613-2.587-1.85c-0.53-0.383-0.799-0.748-0.799-1.109c0-0.098,0.017-0.18,0.05-0.273
				c0.125-0.389,0.552-0.586,1.263-0.586c0.547,0,0.94,0.133,1.171,0.4c0.076,0.109,0.12,0.234,0.12,0.383
				c0,0.055-0.006,0.119-0.017,0.219c-0.006,0.092-0.017,0.164-0.017,0.219c0,0.146,0.055,0.273,0.153,0.355
				c0.071,0.322,0.229,0.475,0.481,0.447c0.219-0.004,0.459-0.365,0.722-1.094c0.263-0.721,0.416-1.459,0.448-2.209
				c-0.306,0.465-0.732,0.695-1.263,0.695c-0.826,0-1.516-0.361-2.057-1.084c-0.503-0.66-0.776-1.477-0.826-2.438
				c-0.043-0.777,0.187-1.713,0.679-2.795c0.558-1.264,1.203-1.893,1.936-1.893c1.148,0,2.067,0.48,2.751,1.449
				S246.252,170.816,246.257,172.496z M243.736,171.408c0.049-0.268,0.071-0.568,0.071-0.896c0-0.887-0.143-1.363-0.433-1.445
				c-0.273-0.076-0.547,0.115-0.825,0.592c-0.252,0.404-0.427,0.869-0.525,1.389c-0.076,0.334-0.109,0.672-0.109,1.012
				c0,0.908,0.219,1.416,0.646,1.516c0.219,0.049,0.459-0.182,0.711-0.689C243.479,172.447,243.632,171.955,243.736,171.408z"/>
		</g>
		<g>
			<path d="M53.228,166.309c-0.211,0.174-0.481,0.262-0.815,0.262c-0.137,0-0.298-0.012-0.484-0.043
				c-0.268,0.086-0.506,0.168-0.719,0.25c-0.517,0.191-0.859,0.361-1.023,0.498c-0.055,0.957-0.055,2.057,0,3.293
				c0.055-0.039,0.194-0.072,0.413-0.109c0.112-0.197,0.301-0.295,0.569-0.295s0.577,0.131,0.932,0.387
				c0.355,0.264,0.533,0.516,0.533,0.762c0,0.064-0.014,0.131-0.041,0.195c-0.109,0.273-0.281,0.449-0.511,0.525
				c-0.139,0.045-0.342,0.055-0.61,0.033c-0.265-0.021-0.438-0.016-0.511,0.021c-0.21,0.1-0.47,0.219-0.774,0.361
				c0,0.826,0.027,1.361,0.082,1.602c0.389-0.092,0.711-0.201,0.968-0.332c0.046-0.061,0.093-0.121,0.139-0.176
				c0.093-0.104,0.257-0.143,0.498-0.125c0.26,0.016,0.525,0.164,0.804,0.441c0.273,0.273,0.413,0.553,0.413,0.844
				c0,0.25-0.107,0.432-0.317,0.551c-0.213,0.121-0.569,0.16-1.066,0.121l-1.299,0.656c-0.058,0.027-0.175,0.121-0.361,0.273
				c-0.137,0.121-0.263,0.18-0.372,0.18c-0.038,0-0.079,0-0.125-0.01c-0.487-0.148-0.933-0.531-1.326-1.148
				c-0.03-0.049-0.041-0.1-0.041-0.17c0-0.027,0.049-0.213,0.15-0.553c-0.102-2.686-0.121-5.539-0.055-8.574
				c-0.066-0.088-0.096-0.182-0.096-0.273c0-0.307,0.281-0.498,0.842-0.58c0.121-0.021,0.273,0.012,0.457,0.094
				c0.12,0.064,0.235,0.125,0.347,0.18l1.66-0.525c0.033-0.01,0.142-0.064,0.314-0.17c0.12-0.07,0.26-0.104,0.416-0.104
				c0.077,0,0.162,0.006,0.265,0.021c0.203,0.039,0.402,0.197,0.599,0.477c0.2,0.285,0.298,0.553,0.298,0.799
				C53.38,166.105,53.331,166.227,53.228,166.309z"/>
			<path d="M60.033,173.719c0,0.721-0.227,1.35-0.684,1.891c-0.457,0.537-1.022,0.805-1.695,0.805c-1.356,0-2.352-0.645-2.986-1.93
				c-0.692-0.455-1.039-0.838-1.039-1.154c0-0.154,0.098-0.285,0.292-0.389c0.377-0.197,0.725-0.301,1.036-0.301
				c0.681,0,1.141,0.404,1.37,1.219c0.109,0.219,0.224,0.443,0.345,0.662c0.12,0.225,0.281,0.334,0.484,0.334
				c0.544,0,0.817-0.389,0.817-1.16c0-0.693-0.125-1.158-0.375-1.398c-0.112-0.105-0.552-0.318-1.329-0.635
				c-0.618-0.264-1.113-0.705-1.493-1.33c-0.342-0.574-0.514-1.164-0.525-1.787c-0.008-0.99,0.238-1.877,0.746-2.652
				c0.536-0.832,1.201-1.242,1.994-1.242c0.921,0,1.594,0.367,2.018,1.105c0.276,0.459,0.435,1.033,0.47,1.717
				c0.101,0.344,0.153,0.668,0.153,0.951c0,0.182-0.024,0.334-0.071,0.455c-0.137,0.344-0.41,0.514-0.815,0.514
				c-0.304,0-0.583-0.109-0.831-0.328c-0.276-0.246-0.449-0.58-0.512-1.018c-0.027-0.143,0.003-0.289,0.09-0.438
				s0.134-0.23,0.134-0.252c0-0.016-0.011-0.033-0.03-0.055c0.008-0.043,0.014-0.092,0.014-0.137c0-0.279-0.161-0.41-0.484-0.389
				c-0.312,0.018-0.558,0.225-0.733,0.625c-0.156,0.338-0.227,0.732-0.208,1.176c0.027,0.781,0.544,1.41,1.551,1.881
				c0.793,0.365,1.342,0.732,1.643,1.088C59.817,172.066,60.033,172.789,60.033,173.719z"/>
			<path d="M66.757,166.473c-0.104,0.195-0.32,0.295-0.653,0.295c-0.432,0-0.687,0.01-0.76,0.037
				c-0.339,0.148-0.735,0.312-1.187,0.498c-0.03,0.701-0.044,1.471-0.044,2.309c0,1.705,0.052,3.455,0.153,5.244
				c0,0.125,0.049,0.295,0.145,0.504c0.098,0.207,0.145,0.359,0.145,0.447c0,0.121-0.041,0.23-0.123,0.334
				c-0.205,0.273-0.508,0.416-0.913,0.416c-0.35,0-0.687-0.094-1.003-0.285c-0.317-0.191-0.5-0.416-0.547-0.666
				c-0.027-0.143,0.043-0.297,0.216-0.477c0.169-0.176,0.254-0.34,0.254-0.492c-0.063-1.838-0.096-3.445-0.096-4.818
				c0-0.826,0.014-1.492,0.041-1.99c-0.008,0-0.14,0.043-0.386,0.137c-0.167,0.066-0.301,0.098-0.402,0.098
				c-0.147,0-0.282-0.049-0.402-0.152c-0.295-0.246-0.479-0.416-0.552-0.498c-0.148-0.164-0.222-0.338-0.222-0.525
				c0-0.064,0.008-0.137,0.027-0.219c0.027-0.131,0.7-0.393,2.021-0.793c1.416-0.432,2.182-0.684,2.294-0.754
				c0.101-0.039,0.216-0.121,0.339-0.252c0.126-0.125,0.26-0.201,0.408-0.219c0.202-0.021,0.47,0.115,0.801,0.4
				c0.369,0.322,0.555,0.66,0.555,1.006C66.866,166.199,66.828,166.336,66.757,166.473z"/>
			<path d="M67.763,174.451c0.019,0.115,0.008,0.24-0.024,0.389c-0.077,0.229-0.118,0.359-0.126,0.387
				c-0.011,0.148-0.022,0.301-0.036,0.465c-0.014,0.16-0.062,0.291-0.153,0.383c-0.087,0.088-0.26,0.137-0.517,0.137
				c-0.257,0-0.484-0.055-0.678-0.152c-0.23-0.115-0.35-0.262-0.361-0.453c0-0.088,0.027-0.191,0.077-0.307
				c0.052-0.121,0.085-0.213,0.099-0.279s0.016-0.24,0.008-0.525c0-0.213,0.052-0.365,0.158-0.471
				c0.104-0.104,0.273-0.152,0.503-0.152c0.241,0,0.465,0.055,0.678,0.158C67.602,174.133,67.728,174.275,67.763,174.451z"/>
		</g>
		<g>
			<g>
				<g>
					<g id="XMLID_1_">
						<path d="M182.489,152.561c0.056,3.65-8.649,5.166-8.705,1.572c2.303,0.168,6.852,0.674,7.806-1.854
							C182.152,152.055,181.984,152.785,182.489,152.561z"/>
						<path d="M170.247,148.966c-1.967-5.505,13.084-6.796,15.78-2.864c0,0.562-0.281,0.842-0.281,1.348
							c-2.247,0.057-2.921-1.629-5.055-1.684c0.113,1.178,0.617,2.919-0.785,4.211c0.394,0.394,0.505,1.124,0.505,2.022
							c-1.629,1.46-4.829,2.077-6.907,0.673c0.167-0.561,0.167-0.561-0.055-1.123c0.951-0.505,1.234,0.45,2.469,0.225
							c-1.573-1.066-3.314-1.909-3.538-4.493C171.875,147.337,170.806,148.404,170.247,148.966z"/>
						<path fill="#FDD9D0" d="M173.784,154.133c0.056,3.594,8.761,2.078,8.705-1.572c-0.505,0.225-0.337-0.506-0.899-0.281
							C180.636,154.807,176.087,154.301,173.784,154.133z M170.247,148.966c0.559-0.562,1.628-1.629,2.133-1.686
							c0.224,2.584,1.965,3.427,3.538,4.493c-1.234,0.226-1.518-0.729-2.469-0.225c0.222,0.562,0.222,0.562,0.055,1.123
							c2.078,1.404,5.278,0.787,6.907-0.673c0-0.898-0.111-1.629-0.505-2.022c1.402-1.292,0.898-3.033,0.785-4.211
							c2.134,0.055,2.808,1.74,5.055,1.684c0-0.506,0.281-0.785,0.281-1.348C183.331,142.17,168.28,143.461,170.247,148.966z
							 M189.285,155.088c-6.627,9.771-26.677,4.549-25.16-10.166c6.458-4.549,14.657-6.121,24.879-6.516
							C190.971,143.799,192.093,150.932,189.285,155.088z"/>
						<path fill="#FFFFFF" d="M167.102,183.225c0.448-0.168,0.842-0.337,1.459-0.281c-0.111,0.562-0.617,0.842-0.617,1.572
							C167.494,184.291,167.325,183.674,167.102,183.225z"/>
						<path fill="#FFFFFF" d="M163.675,190.469c-0.058-2.246-0.675-4.886-1.46-6.907
							C168.167,180.305,168.617,192.547,163.675,190.469z"/>
						<path d="M168.28,194.063c-1.798,2.921-10.391,4.718-11.457,0.618c3.425,0.842,8.65,0.505,10.727-2.641
							C168.28,192.547,167.999,193.053,168.28,194.063z"/>
						<path fill="#FFFFFF" d="M160.923,183.842c4.492,9.211-6.684,9.379-4.437,0.506C158.283,184.46,159.071,184.01,160.923,183.842
							z"/>
						<path fill="#FFFFFF" d="M155.532,189.178c-1.236-1.404-2.696-2.977-4.831-3.818c0.9-0.562,3.201-0.338,4.268-0.506
							C155.308,186.594,155.251,187.605,155.532,189.178z"/>
						<path d="M167.943,184.516c0-0.73,0.506-1.01,0.617-1.572c-0.617-0.056-1.011,0.113-1.459,0.281
							C167.325,183.674,167.494,184.291,167.943,184.516z M162.215,183.562c0.785,2.021,1.402,4.661,1.46,6.907
							C168.617,192.547,168.167,180.305,162.215,183.562z M156.486,184.348c-2.247,8.873,8.929,8.705,4.437-0.506
							C159.071,184.01,158.283,184.46,156.486,184.348z M150.701,185.359c2.135,0.842,3.595,2.414,4.831,3.818
							c-0.281-1.572-0.225-2.584-0.563-4.324C153.902,185.021,151.602,184.797,150.701,185.359z M150.196,173.564
							c4.83-2.864,9.995,2.639,14.265-2.752c-0.112-7.525-4.437-13.703-5.953-20.442c0.224-0.337,0.898-0.226,1.461-0.28
							c2.752,6.682,5.391,12.13,6.738,19.824c4.043,2.977,9.436,4.493,12.301,8.873c-0.729,3.988-5.28,2.809-8.931,4.045
							c-2.021,2.863-0.561,8.704-4.548,9.885c-0.956-0.17-1.854-0.451-2.529-0.899c-6.064,4.942-10.051-4.83-15.105-6.234
							c-3.203,0.45-11.009,2.978-12.75,0.337c3.201-4.269,8.2-8.873,13.029-12.019c-0.787-2.246,1.124-5.56,3.091-4.212
							C151.037,170.98,149.298,171.88,150.196,173.564z"/>
						<path d="M139.188,64.723c0.225,0,0.45,0.281-0.28,0.225c0.056-0.112,0.056-0.112,0.112-0.168
							C139.076,64.723,139.132,64.723,139.188,64.723z"/>
						<path d="M139.02,156.491c0,3.707-7.695,5.055-8.873,1.798c3.032-0.45,6.29,0.561,8.255-2.303
							C138.852,155.93,138.683,156.548,139.02,156.491z"/>
						<path fill="#A97C50" d="M152.161,76.405c-6.064-2.415-9.547-2.302-18.308-1.124c6.009-7.02,22.072-18.083,27.687-4.099
							C157.89,71.912,154.465,73.934,152.161,76.405z"/>
						<path d="M128.125,151.662c-1.179,0.674-1.348,2.246-3.202,2.302c-0.28-0.28-0.674-0.449-0.617-1.067
							c3.37-4.941,11.625-6.4,17.354-3.931c0.394,0.562,0.45,1.124,0.28,1.853c-1.853,0.338-3.369-1.234-5.503-1.291
							c1.46,2.078-0.281,3.987-1.292,5.393c1.18,0.336,0.674-1.181,1.741-1.461c2.247,3.988-6.795,5.336-7.75,1.854
							c0.618-0.113,0.675,0.337,1.348,0.111C130.259,154.357,128.181,153.627,128.125,151.662z"/>
						<path fill="#FDD9D0" d="M138.402,155.986c-1.965,2.863-5.223,1.853-8.255,2.303c1.178,3.257,8.873,1.909,8.873-1.798
							C138.683,156.548,138.852,155.93,138.402,155.986z M124.923,153.964c1.854-0.056,2.022-1.628,3.202-2.302
							c0.056,1.965,2.134,2.695,2.358,3.762c-0.673,0.226-0.729-0.225-1.348-0.111c0.955,3.482,9.997,2.135,7.75-1.854
							c-1.067,0.28-0.562,1.797-1.741,1.461c1.011-1.405,2.752-3.314,1.292-5.393c2.134,0.057,3.65,1.629,5.503,1.291
							c0.17-0.729,0.114-1.291-0.28-1.853c-5.729-2.47-13.984-1.011-17.354,3.931C124.249,153.515,124.643,153.684,124.923,153.964z
							 M150.085,145.934c1.066,5.953,0.056,14.545-4.551,17.24c-11.569,6.74-24.878-0.785-25.554-15.051
							C129.08,142.9,140.705,142.17,150.085,145.934z"/>
						<path fill="#FDD9D0" d="M93.921,103.026c20.78-6.178,32.687-34.934,58.016-24.711c18.981-14.827,30.047,10.671,34.595,28.867
							c2.19,8.761,4.773,20.442,3.482,29.428c-15.95-2.639-31.339,12.75-45.884,5.224c-8.93-1.292-19.375,0.056-27.913,6.347
							c-4.324-0.899-8.761-1.684-13.141-2.583C101.504,130.994,97.46,115.606,93.921,103.026z"/>
						<path d="M93.81,150.033c-2.696-4.887,6.908-6.178,7.076-0.898c-1.74-0.225-2.527-1.572-3.931-2.135
							C95.326,147.506,95.271,149.359,93.81,150.033z"/>
						<path fill="#C49A6C" d="M92.013,102.015c3.425,12.524,6.794,26.676,8.817,41.11c-1.629-1.74-3.987-2.584-6.627-3.09
							c-4.494-9.49-9.661-22.689-5.561-34.763c9.211-21.51,32.744-32.742,55.656-40.717c-7.75,5.054-15.051,11.4-22.913,17.859
							h-0.057C112.568,89.49,103.133,96.679,92.013,102.015z"/>
						<path fill="#FDD9D0" d="M167.55,192.041c-2.076,3.146-7.302,3.482-10.727,2.641c1.066,4.1,9.659,2.303,11.457-0.618
							C167.999,193.053,168.28,192.547,167.55,192.041z M150.196,173.564c-0.898-1.685,0.841-2.584,1.068-3.875
							c-1.967-1.348-3.878,1.966-3.091,4.212c-4.829,3.146-9.828,7.75-13.029,12.019c1.741,2.641,9.547,0.113,12.75-0.337
							c5.055,1.404,9.041,11.177,15.105,6.234c0.675,0.448,1.573,0.729,2.529,0.899c3.987-1.181,2.526-7.021,4.548-9.885
							c3.65-1.236,8.201-0.057,8.931-4.045c-2.865-4.38-8.258-5.896-12.301-8.873c-1.348-7.694-3.986-13.143-6.738-19.824
							c-0.562,0.055-1.237-0.057-1.461,0.28c1.517,6.739,5.841,12.917,5.953,20.442C160.191,176.203,155.026,170.7,150.196,173.564z
							 M91.844,151.83c-4.717-5.166,2.808-14.49,8.312-7.693c0.394,0,0.45-1.067,0.675-0.619c0.505,5.561,2.751,13.03,2.864,18.59
							c1.516,0.674,1.628-1.066,2.527-1.516c-1.292-3.539-2.19-8.649-2.471-12.805c5.279,0.617,9.94,2.303,15.051,2.639
							c2.022,25.777,39.256,19.432,33.528-4.492c3.819-0.562,6.91-1.067,10.11-0.73c1.346,12.131,8.143,19.264,20.723,16.174
							c4.044-1.291,7.3-3.594,8.872-7.413c2.529,22.633-5.503,42.739-20.554,53.41c0-1.235-0.111-2.359-1.292-2.19
							c0.787,10.783-15.836,13.142-21.286,7.02c0,0-3.257,0.113-12.917-4.155c-15.837-4.774-24.205-21.116-28.473-37.741
							C101.448,164.972,97.179,157.447,91.844,151.83z M100.886,149.135c-0.168-5.279-9.771-3.988-7.076,0.898
							c1.46-0.674,1.516-2.527,3.145-3.033C98.359,147.562,99.146,148.91,100.886,149.135z"/>
						<path d="M135.257,71.575C135.538,72.305,135.426,70.845,135.257,71.575L135.257,71.575z M133.292,75.338
							C133.572,75.955,133.684,74.608,133.292,75.338L133.292,75.338z M164.125,144.922c-1.517,14.715,18.533,19.938,25.16,10.166
							c2.808-4.156,1.686-11.289-0.281-16.682C178.782,138.801,170.583,140.373,164.125,144.922z M133.853,75.281
							c8.761-1.178,12.244-1.292,18.308,1.124c2.304-2.471,5.729-4.493,9.379-5.223C155.925,57.198,139.862,68.262,133.853,75.281z
							 M145.534,163.174c4.606-2.695,5.617-11.287,4.551-17.24c-9.38-3.764-21.005-3.033-30.104,2.189
							C120.656,162.389,133.965,169.914,145.534,163.174z M110.041,184.572c-3.033-14.771-14.265-22.914-21.117-34.539
							c-0.055-3.707-0.449-8.986,3.82-9.547c-2.023-7.133-7.021-13.648-7.64-21.566c-0.111-1.349-0.056-2.753,0.113-4.157
							c3.314-26.676,27.351-40.436,51.333-49.197c0,0.056,0,0.112,0,0.112c0.393,0.112,0.393-0.057,0.28-0.168
							c0.45-0.169,0.898-0.337,1.405-0.506c-0.057,0.057-0.057,0.112-0.057,0.168c0.224,0.506,0.168-0.056,0.112-0.168
							c0.224-0.112,0.506-0.168,0.73-0.224c-0.056,0.056-0.056,0.056-0.112,0.168c0.73,0.056,0.505-0.225,0.28-0.225
							c2.583-0.954,5.111-1.797,7.639-2.583c8.592-1.459,13.478,3.201,16.398,9.099c10.671,4.043,17.521,12.749,21.789,23.756
							c4.887,12.581,6.461,28.081,6.404,43.02c0,6.29,1.629,16.849,2.81,22.689c1.458,7.301-0.508,16.567-3.371,24.149
							c-1.46,3.65-3.089,6.964-4.717,9.379c-4.381,6.515-10.167,10.334-14.659,15.332c-3.482,3.875-6.347,8.199-12.974,8.144
							c-3.425-0.057-8.649-1.911-9.604-5.505c5.45,6.122,22.073,3.764,21.286-7.02c1.181-0.169,1.292,0.955,1.292,2.19
							c15.051-10.671,23.083-30.777,20.554-53.41c-1.572,3.819-4.828,6.122-8.872,7.413c-12.58,3.09-19.377-4.043-20.723-16.174
							c-3.2-0.337-6.291,0.168-10.11,0.73c5.728,23.924-31.506,30.27-33.528,4.492c-5.111-0.336-9.772-2.021-15.051-2.639
							c0.281,4.155,1.179,9.266,2.471,12.805c-0.899,0.449-1.012,2.189-2.527,1.516c-0.113-5.56-2.359-13.029-2.864-18.59
							c-0.225-0.448-0.281,0.619-0.675,0.619c-5.504-6.797-13.029,2.527-8.312,7.693c5.335,5.617,9.604,13.142,15.669,18.477
							c4.268,16.625,12.636,32.967,28.473,37.741c-0.449,2.189-2.078,0.843-3.875,0.843c-3.707-1.741-6.964-4.1-9.828-6.796
							C117.286,197.321,113.41,191.256,110.041,184.572z M100.831,143.125c-2.023-14.434-5.392-28.586-8.817-41.11
							c11.12-5.336,20.555-12.525,29.316-19.601c-0.057,0.056-0.113,0.112-0.113,0.169c0.057-0.057,0.17-0.113,0.225-0.169h-0.055
							c7.862-6.459,15.163-12.805,22.913-17.859c-22.913,7.975-46.445,19.207-55.656,40.717c-4.1,12.074,1.067,25.273,5.561,34.763
							C96.843,140.541,99.201,141.385,100.831,143.125z M151.938,78.314c-25.33-10.222-37.236,18.533-58.016,24.711
							c3.539,12.58,7.583,27.968,9.155,42.571c4.38,0.899,8.817,1.684,13.141,2.583c8.537-6.291,18.983-7.639,27.913-6.347
							c14.545,7.526,29.934-7.863,45.884-5.224c1.291-8.985-1.292-20.667-3.482-29.428
							C181.984,88.985,170.919,63.488,151.938,78.314z"/>
					</g>
				</g>
			</g>
			<g>
				<path d="M121.56,202.958c-8.262-2.354-16.021-6.719-22.529-12.516c-3.283-2.874-6.199-6.162-8.809-9.672
					c-2.576-3.538-4.776-7.353-6.579-11.345c-1.764-4.012-3.121-8.201-4.026-12.484c-0.855-4.29-1.336-8.659-1.269-13.021
					c0.067-8.713,2.013-17.401,5.812-25.108c-2.632,8.169-3.83,16.661-3.471,25.069c0.37,8.398,2.26,16.697,5.693,24.325
					c3.369,7.655,8.263,14.623,14.24,20.532C106.616,194.646,113.735,199.436,121.56,202.958z"/>
				<path d="M186.546,95.426c6.562,5.12,11.985,11.809,15.814,19.337c1.948,3.752,3.428,7.746,4.554,11.832
					c1.099,4.097,1.743,8.312,2.009,12.546c0.208,4.234,0.023,8.492-0.595,12.689c-0.658,4.188-1.681,8.321-3.191,12.27
					c-2.951,7.916-7.603,15.168-13.553,20.986c5.003-6.641,8.894-13.975,11.34-21.75c2.443-7.773,3.475-15.928,3.005-24.029
					c-0.415-8.095-2.374-16.094-5.672-23.539C196.945,108.319,192.263,101.461,186.546,95.426z"/>
			</g>
		</g>
	</g>
</g>
</svg>
